<?xml version="1.0" standalone="no"?>
<!DOCTYPE svg PUBLIC "-//W3C//DTD SVG 1.1//EN" "http://www.w3.org/Graphics/SVG/1.1/DTD/svg11.dtd" >
<svg xmlns="http://www.w3.org/2000/svg">
<metadata>
This is a custom SVG webfont generated by Font Squirrel.
Copyright   : send bread and water to jasonkottkeorg
</metadata>
<defs>
<font id="webfontLQQG4hbV" horiz-adv-x="1706" >
<font-face units-per-em="2048" ascent="1638" descent="-410" />
<missing-glyph horiz-adv-x="1219" />
<glyph unicode=" "  horiz-adv-x="1219" />
<glyph unicode="&#x09;" horiz-adv-x="1219" />
<glyph unicode="&#xa0;" horiz-adv-x="1219" />
<glyph unicode="!" horiz-adv-x="975" d="M244 488v731h487v-731h-487zM244 244h487v-244h-487v244z" />
<glyph unicode="&#x22;" horiz-adv-x="1462" d="M1219 731h-975v488h975v-488z" />
<glyph unicode="#" horiz-adv-x="1950" d="M488 0v244h-244v244h244v243h-244v244h244v244h975v-244h244v-244h-244v-243h244v-244h-244v-244h-975z" />
<glyph unicode="$" d="M244 0v244h731v244h-487v243h-244v244h244v244h243v244h488v-244h244v-244h-732v-244h488v-243h244v-488h-488v-244h-487v244h-244z" />
<glyph unicode="%" horiz-adv-x="1950" d="M488 0v488h243v243h-487v488h1219v-488h-244v-243h488v-488h-1219z" />
<glyph unicode="&#x26;" d="M488 0v244h-244v244h244v243h-244v244h244v244h243v244h488v-244h244v-244h-732v-244h488v-243h-488v-244h732v-244h-244v-244h-488v244h-243z" />
<glyph unicode="'" horiz-adv-x="975" d="M731 731h-487v488h487v-488z" />
<glyph unicode="(" horiz-adv-x="1219" d="M488 0v244h-244v731h244v244h487v-244h-244v-731h244v-244h-487z" />
<glyph unicode=")" horiz-adv-x="1219" d="M975 244h-244v-244h-487v244h244v731h-244v244h487v-244h244v-731z" />
<glyph unicode="*" horiz-adv-x="1950" d="M731 0v244h-487v244h244v243h-244v244h487v244h488v-244h488v-244h-244v-243h244v-244h-488v-244h-488z" />
<glyph unicode="+" horiz-adv-x="1950" d="M244 488h487v-488h488v488h488v243h-488v488h-488v-488h-487v-243z" />
<glyph unicode="," horiz-adv-x="975" d="M244 0v244h487v-244h-243v-244h-488v244h244z" />
<glyph unicode="-" horiz-adv-x="1462" d="M1219 488h-975v243h975v-243z" />
<glyph unicode="." horiz-adv-x="731" d="M0 244h488v-244h-488v244z" />
<glyph unicode="/" horiz-adv-x="1462" d="M244 0v488h244v243h243v488h488v-488h-244v-243h-244v-488h-487z" />
<glyph unicode="0" d="M488 0v244h-244v731h244v244h731v-244h244v-731h-244v-244h-731zM731 244h244v731h-244v-731z" />
<glyph unicode="1" horiz-adv-x="1462" d="M488 975h-244v244h731v-975h244v-244h-975v244h244v731z" />
<glyph unicode="2" d="M244 0v488h244v243h487v244h-731v244h975v-244h244v-244h-244v-243h-488v-244h732v-244h-1219z" />
<glyph unicode="3" d="M244 0v244h731v244h-487v243h487v244h-731v244h975v-244h244v-244h-244v-243h244v-244h-244v-244h-975z" />
<glyph unicode="4" d="M244 1219v-975h487v-244h488v244h244v244h-244v731h-975z" />
<glyph unicode="5" d="M244 0v244h731v244h-731v731h1219v-244h-732v-244h488v-243h244v-244h-244v-244h-975z" />
<glyph unicode="6" d="M488 0v244h-244v731h244v244h731v-244h-488v-244h488v-243h244v-244h-244v-244h-731zM731 244h244v244h-244v-244z" />
<glyph unicode="7" d="M488 0v488h243v243h244v244h-731v244h1219v-488h-244v-243h-244v-488h-487z" />
<glyph unicode="8" d="M488 0v244h-244v244h244v243h-244v244h244v244h731v-244h244v-244h-244v-243h244v-244h-244v-244h-731zM731 731h244v244h-244v-244zM731 244h244v244h-244v-244z" />
<glyph unicode="9" d="M488 0v244h487v244h-487v243h-244v244h244v244h731v-244h244v-731h-244v-244h-731zM731 731h244v244h-244v-244z" />
<glyph unicode=":" horiz-adv-x="731" d="M0 488h488v-244h-488v244zM0 975h488v-244h-488v244z" />
<glyph unicode=";" horiz-adv-x="975" d="M244 975h487v-244h-487v244zM244 244v244h487v-244h-243v-244h-488v244h244z" />
<glyph unicode="&#x3c;" horiz-adv-x="1462" d="M731 0v244h-243v244h-244v243h244v244h243v244h488v-244h-244v-244h-244v-243h244v-244h244v-244h-488z" />
<glyph unicode="=" horiz-adv-x="1462" d="M1219 244h-975v244h975v-244zM1219 731h-975v244h975v-244z" />
<glyph unicode="&#x3e;" horiz-adv-x="1462" d="M1219 488h-244v-244h-244v-244h-487v244h244v244h243v243h-243v244h-244v244h487v-244h244v-244h244v-243z" />
<glyph unicode="?" d="M488 244h487v-244h-487v244zM488 488v243h487v244h-731v244h975v-244h244v-244h-244v-243h-731z" />
<glyph unicode="@" horiz-adv-x="1950" d="M488 0zM731 488h732v243h244v244h-244v244h-975v-244h-244v-731h244v-244h975v244h-732v244z" />
<glyph unicode="A" d="M1219 975h244v-975h-488v488h-244v-488h-487v975h244v244h731v-244zM731 731h244v244h-244v-244z" />
<glyph unicode="B" d="M244 0v1219h975v-244h244v-244h-244v-243h244v-244h-244v-244h-975zM731 731h244v244h-244v-244zM731 244h244v244h-244v-244z" />
<glyph unicode="C" d="M488 0v244h-244v731h244v244h731v-244h244v-244h-488v244h-244v-731h244v244h488v-244h-244v-244h-731z" />
<glyph unicode="D" d="M244 0v1219h975v-244h244v-731h-244v-244h-975zM975 975h-244v-731h244v731z" />
<glyph unicode="E" horiz-adv-x="1462" d="M1219 975h-488v-244h488v-243h-488v-244h488v-244h-975v1219h975v-244z" />
<glyph unicode="F" horiz-adv-x="1462" d="M244 0v1219h975v-244h-488v-244h488v-243h-488v-488h-487z" />
<glyph unicode="G" d="M488 0v244h-244v731h244v244h975v-244h-732v-731h244v487h488v-487h-244v-244h-731z" />
<glyph unicode="H" d="M244 0v1219h487v-488h244v488h488v-1219h-488v488h-244v-488h-487z" />
<glyph unicode="I" horiz-adv-x="975" d="M244 0v1219h487v-1219h-487z" />
<glyph unicode="J" d="M488 0v244h-244v244h487v-244h244v975h488v-975h-244v-244h-731z" />
<glyph unicode="K" d="M244 0v1219h487v-244h244v244h488v-244h-244v-244h-244v-243h244v-244h244v-244h-488v244h-244v-244h-487z" />
<glyph unicode="L" horiz-adv-x="1462" d="M731 244h488v-244h-975v1219h487v-975z" />
<glyph unicode="M" horiz-adv-x="1950" d="M244 0v1219h487v-244h488v244h488v-1219h-488v488h-488v-488h-487z" />
<glyph unicode="N" horiz-adv-x="1950" d="M244 0v1219h487v-244h244v-244h244v488h488v-1219h-488v244h-244v244h-244v-488h-487z" />
<glyph unicode="O" d="M488 0v244h-244v731h244v244h731v-244h244v-731h-244v-244h-731zM731 244h244v731h-244v-731z" />
<glyph unicode="P" d="M244 0v1219h975v-244h244v-244h-244v-243h-488v-488h-487zM731 731h244v244h-244v-244z" />
<glyph unicode="Q" d="M488 0v244h-244v731h244v244h731v-244h244v-731h-244v-244h244v-244h-488v244h-487zM731 244h244v731h-244v-731z" />
<glyph unicode="R" d="M244 0v1219h975v-244h244v-244h-244v-487h244v-244h-488v244h-244v-244h-487zM731 731h244v244h-244v-244z" />
<glyph unicode="S" d="M244 0v244h731v244h-487v243h-244v244h244v244h975v-244h-732v-244h488v-243h244v-244h-244v-244h-975z" />
<glyph unicode="T" horiz-adv-x="1462" d="M488 0v975h-244v244h975v-244h-244v-975h-487z" />
<glyph unicode="U" d="M488 0v244h-244v975h487v-975h244v975h488v-975h-244v-244h-731z" />
<glyph unicode="V" horiz-adv-x="1950" d="M731 0v244h-243v487h-244v488h487v-488h488v488h488v-488h-244v-487h-244v-244h-488z" />
<glyph unicode="W" horiz-adv-x="1950" d="M488 0v244h-244v975h487v-244h488v244h488v-975h-244v-244h-975z" />
<glyph unicode="X" horiz-adv-x="1950" d="M244 0v244h244v244h243v243h-243v244h-244v244h487v-244h488v244h488v-244h-244v-244h-244v-243h244v-244h244v-244h-488v244h-488v-244h-487z" />
<glyph unicode="Y" horiz-adv-x="1950" d="M731 0v731h-243v244h-244v244h487v-244h488v244h488v-244h-244v-244h-244v-731h-488z" />
<glyph unicode="Z" horiz-adv-x="1462" d="M244 0v488h244v243h243v244h-487v244h975v-488h-244v-243h-244v-244h488v-244h-975z" />
<glyph unicode="[" horiz-adv-x="1219" d="M244 0v1219h731v-244h-244v-731h244v-244h-731z" />
<glyph unicode="\" horiz-adv-x="1462" d="M731 0v488h-243v243h-244v488h487v-488h244v-243h244v-488h-488z" />
<glyph unicode="]" horiz-adv-x="1219" d="M975 0h-731v244h244v731h-244v244h731v-1219z" />
<glyph unicode="^" horiz-adv-x="1462" d="M244 731v244h244v244h487v-244h244v-244h-975z" />
<glyph unicode="_" d="M1463 -244h-1219v244h1219v-244z" />
<glyph unicode="`" horiz-adv-x="1219" d="M488 731v244h-244v244h487v-244h244v-244h-487z" />
<glyph unicode="a" d="M1219 975h244v-975h-488v488h-244v-488h-487v975h244v244h731v-244zM731 731h244v244h-244v-244z" />
<glyph unicode="b" d="M244 0v1219h975v-244h244v-244h-244v-243h244v-244h-244v-244h-975zM731 731h244v244h-244v-244zM731 244h244v244h-244v-244z" />
<glyph unicode="c" d="M488 0v244h-244v731h244v244h731v-244h244v-244h-488v244h-244v-731h244v244h488v-244h-244v-244h-731z" />
<glyph unicode="d" d="M244 0v1219h975v-244h244v-731h-244v-244h-975zM975 975h-244v-731h244v731z" />
<glyph unicode="e" horiz-adv-x="1462" d="M1219 975h-488v-244h488v-243h-488v-244h488v-244h-975v1219h975v-244z" />
<glyph unicode="f" horiz-adv-x="1462" d="M244 0v1219h975v-244h-488v-244h488v-243h-488v-488h-487z" />
<glyph unicode="g" d="M488 0v244h-244v731h244v244h975v-244h-732v-731h244v487h488v-487h-244v-244h-731z" />
<glyph unicode="h" d="M244 0v1219h487v-488h244v488h488v-1219h-488v488h-244v-488h-487z" />
<glyph unicode="i" horiz-adv-x="975" d="M244 0v1219h487v-1219h-487z" />
<glyph unicode="j" d="M488 0v244h-244v244h487v-244h244v975h488v-975h-244v-244h-731z" />
<glyph unicode="k" d="M244 0v1219h487v-244h244v244h488v-244h-244v-244h-244v-243h244v-244h244v-244h-488v244h-244v-244h-487z" />
<glyph unicode="l" horiz-adv-x="1462" d="M731 244h488v-244h-975v1219h487v-975z" />
<glyph unicode="m" horiz-adv-x="1950" d="M244 0v1219h487v-244h488v244h488v-1219h-488v488h-488v-488h-487z" />
<glyph unicode="n" horiz-adv-x="1950" d="M244 0v1219h487v-244h244v-244h244v488h488v-1219h-488v244h-244v244h-244v-488h-487z" />
<glyph unicode="o" d="M488 0v244h-244v731h244v244h731v-244h244v-731h-244v-244h-731zM731 244h244v731h-244v-731z" />
<glyph unicode="p" d="M244 0v1219h975v-244h244v-244h-244v-243h-488v-488h-487zM731 731h244v244h-244v-244z" />
<glyph unicode="q" d="M488 0v244h-244v731h244v244h731v-244h244v-731h-244v-244h244v-244h-488v244h-487zM731 244h244v731h-244v-731z" />
<glyph unicode="r" d="M244 0v1219h975v-244h244v-244h-244v-487h244v-244h-488v244h-244v-244h-487zM731 731h244v244h-244v-244z" />
<glyph unicode="s" d="M244 0v244h731v244h-487v243h-244v244h244v244h975v-244h-732v-244h488v-243h244v-244h-244v-244h-975z" />
<glyph unicode="t" horiz-adv-x="1462" d="M488 0v975h-244v244h975v-244h-244v-975h-487z" />
<glyph unicode="u" d="M488 0v244h-244v975h487v-975h244v975h488v-975h-244v-244h-731z" />
<glyph unicode="v" horiz-adv-x="1950" d="M731 0v244h-243v487h-244v488h487v-488h488v488h488v-488h-244v-487h-244v-244h-488z" />
<glyph unicode="w" horiz-adv-x="1950" d="M488 0v244h-244v975h487v-244h488v244h488v-975h-244v-244h-975z" />
<glyph unicode="x" horiz-adv-x="1950" d="M244 0v244h244v244h243v243h-243v244h-244v244h487v-244h488v244h488v-244h-244v-244h-244v-243h244v-244h244v-244h-488v244h-488v-244h-487z" />
<glyph unicode="y" horiz-adv-x="1950" d="M731 0v731h-243v244h-244v244h487v-244h488v244h488v-244h-244v-244h-244v-731h-488z" />
<glyph unicode="z" horiz-adv-x="1462" d="M244 0v488h244v243h243v244h-487v244h975v-488h-244v-243h-244v-244h488v-244h-975z" />
<glyph unicode="{" horiz-adv-x="1462" d="M488 0v488h-244v243h244v488h731v-244h-244v-244h-244v-243h244v-244h244v-244h-731z" />
<glyph unicode="|" horiz-adv-x="975" d="M244 -244v1707h487v-1707h-487z" />
<glyph unicode="}" horiz-adv-x="1462" d="M1219 488h-244v-488h-731v244h244v244h243v243h-243v244h-244v244h731v-488h244v-243z" />
<glyph unicode="~" d="M244 731v244h244v244h975v-244h-244v-244h-975z" />
<glyph unicode="&#xaa;" d="M1219 975h244v-975h-488v488h-244v-488h-487v975h244v244h731v-244zM731 731h244v244h-244v-244z" />
<glyph unicode="&#xad;" horiz-adv-x="1462" d="M1219 488h-975v243h975v-243z" />
<glyph unicode="&#xb2;" d="M244 0v488h244v243h487v244h-731v244h975v-244h244v-244h-244v-243h-488v-244h732v-244h-1219z" />
<glyph unicode="&#xb3;" d="M244 0v244h731v244h-487v243h487v244h-731v244h975v-244h244v-244h-244v-243h244v-244h-244v-244h-975z" />
<glyph unicode="&#xb9;" horiz-adv-x="1462" d="M488 975h-244v244h731v-975h244v-244h-975v244h244v731z" />
<glyph unicode="&#xba;" d="M488 0v244h-244v731h244v244h731v-244h244v-731h-244v-244h-731zM731 244h244v731h-244v-731z" />
<glyph unicode="&#xc0;" d="M609 1341v244h-244v244h487v-244h244v-244h-487zM1219 975h244v-975h-488v488h-244v-488h-487v975h244v244h731v-244zM731 731h244v244h-244v-244z" />
<glyph unicode="&#xc2;" d="M365 1341v244h244v244h487v-244h244v-244h-975zM1219 975h244v-975h-488v488h-244v-488h-487v975h244v244h731v-244zM731 731h244v244h-244v-244z" />
<glyph unicode="&#xc3;" d="M244 1341v244h244v244h975v-244h-244v-244h-975zM1219 975h244v-975h-488v488h-244v-488h-487v975h244v244h731v-244zM731 731h244v244h-244v-244z" />
<glyph unicode="&#xc8;" horiz-adv-x="1462" d="M488 1341v244h-244v244h487v-244h244v-244h-487zM1219 975h-488v-244h488v-243h-488v-244h488v-244h-975v1219h975v-244z" />
<glyph unicode="&#xca;" horiz-adv-x="1462" d="M244 1341v244h244v244h487v-244h244v-244h-975zM1219 975h-488v-244h488v-243h-488v-244h488v-244h-975v1219h975v-244z" />
<glyph unicode="&#xcc;" horiz-adv-x="975" d="M244 1341v244h-244v244h487v-244h244v-244h-487zM244 0v1219h487v-1219h-487z" />
<glyph unicode="&#xce;" horiz-adv-x="975" d="M0 1341v244h244v244h487v-244h244v-244h-975zM244 0v1219h487v-1219h-487z" />
<glyph unicode="&#xd1;" horiz-adv-x="1950" d="M365 1341v244h244v244h975v-244h-244v-244h-975zM244 0v1219h487v-244h244v-244h244v488h488v-1219h-488v244h-244v244h-244v-488h-487z" />
<glyph unicode="&#xd2;" d="M609 1341v244h-244v244h487v-244h244v-244h-487zM488 0v244h-244v731h244v244h731v-244h244v-731h-244v-244h-731zM731 244h244v731h-244v-731z" />
<glyph unicode="&#xd4;" d="M365 1341v244h244v244h487v-244h244v-244h-975zM488 0v244h-244v731h244v244h731v-244h244v-731h-244v-244h-731zM731 244h244v731h-244v-731z" />
<glyph unicode="&#xd5;" d="M244 1341v244h244v244h975v-244h-244v-244h-975zM488 0v244h-244v731h244v244h731v-244h244v-731h-244v-244h-731zM731 244h244v731h-244v-731z" />
<glyph unicode="&#xd9;" d="M609 1341v244h-244v244h487v-244h244v-244h-487zM488 0v244h-244v975h487v-975h244v975h488v-975h-244v-244h-731z" />
<glyph unicode="&#xdb;" d="M365 1341v244h244v244h487v-244h244v-244h-975zM488 0v244h-244v975h487v-975h244v975h488v-975h-244v-244h-731z" />
<glyph unicode="&#xe0;" d="M609 1341v244h-244v244h487v-244h244v-244h-487zM1219 975h244v-975h-488v488h-244v-488h-487v975h244v244h731v-244zM731 731h244v244h-244v-244z" />
<glyph unicode="&#xe2;" d="M365 1341v244h244v244h487v-244h244v-244h-975zM1219 975h244v-975h-488v488h-244v-488h-487v975h244v244h731v-244zM731 731h244v244h-244v-244z" />
<glyph unicode="&#xe3;" d="M244 1341v244h244v244h975v-244h-244v-244h-975zM1219 975h244v-975h-488v488h-244v-488h-487v975h244v244h731v-244zM731 731h244v244h-244v-244z" />
<glyph unicode="&#xe8;" horiz-adv-x="1462" d="M488 1341v244h-244v244h487v-244h244v-244h-487zM1219 975h-488v-244h488v-243h-488v-244h488v-244h-975v1219h975v-244z" />
<glyph unicode="&#xea;" horiz-adv-x="1462" d="M244 1341v244h244v244h487v-244h244v-244h-975zM1219 975h-488v-244h488v-243h-488v-244h488v-244h-975v1219h975v-244z" />
<glyph unicode="&#xec;" horiz-adv-x="975" d="M244 1341v244h-244v244h487v-244h244v-244h-487zM244 0v1219h487v-1219h-487z" />
<glyph unicode="&#xee;" horiz-adv-x="975" d="M0 1341v244h244v244h487v-244h244v-244h-975zM244 0v1219h487v-1219h-487z" />
<glyph unicode="&#xf1;" horiz-adv-x="1950" d="M365 1341v244h244v244h975v-244h-244v-244h-975zM244 0v1219h487v-244h244v-244h244v488h488v-1219h-488v244h-244v244h-244v-488h-487z" />
<glyph unicode="&#xf2;" d="M609 1341v244h-244v244h487v-244h244v-244h-487zM488 0v244h-244v731h244v244h731v-244h244v-731h-244v-244h-731zM731 244h244v731h-244v-731z" />
<glyph unicode="&#xf4;" d="M365 1341v244h244v244h487v-244h244v-244h-975zM488 0v244h-244v731h244v244h731v-244h244v-731h-244v-244h-731zM731 244h244v731h-244v-731z" />
<glyph unicode="&#xf5;" d="M244 1341v244h244v244h975v-244h-244v-244h-975zM488 0v244h-244v731h244v244h731v-244h244v-731h-244v-244h-731zM731 244h244v731h-244v-731z" />
<glyph unicode="&#xf9;" d="M609 1341v244h-244v244h487v-244h244v-244h-487zM488 0v244h-244v975h487v-975h244v975h488v-975h-244v-244h-731z" />
<glyph unicode="&#xfb;" d="M365 1341v244h244v244h487v-244h244v-244h-975zM488 0v244h-244v975h487v-975h244v975h488v-975h-244v-244h-731z" />
<glyph unicode="&#x152;" horiz-adv-x="3169" d="M2926 975h-488v-244h488v-243h-488v-244h488v-244h-975v1219h975v-244zM488 0v244h-244v731h244v244h731v-244h244v-731h-244v-244h-731zM731 244h244v731h-244v-731z" />
<glyph unicode="&#x153;" horiz-adv-x="3169" d="M2926 975h-488v-244h488v-243h-488v-244h488v-244h-975v1219h975v-244zM488 0v244h-244v731h244v244h731v-244h244v-731h-244v-244h-731zM731 244h244v731h-244v-731z" />
<glyph unicode="&#x2c6;" horiz-adv-x="1462" d="M244 731v244h244v244h487v-244h244v-244h-975z" />
<glyph unicode="&#x2dc;" horiz-adv-x="1219" d="M-610 122v244h244v244h975v-244h-244v-244h-975z" />
<glyph unicode="&#x2000;" horiz-adv-x="914" />
<glyph unicode="&#x2001;" horiz-adv-x="1829" />
<glyph unicode="&#x2002;" horiz-adv-x="914" />
<glyph unicode="&#x2003;" horiz-adv-x="1829" />
<glyph unicode="&#x2004;" horiz-adv-x="608" />
<glyph unicode="&#x2005;" horiz-adv-x="456" />
<glyph unicode="&#x2006;" horiz-adv-x="304" />
<glyph unicode="&#x2007;" horiz-adv-x="304" />
<glyph unicode="&#x2008;" horiz-adv-x="228" />
<glyph unicode="&#x2009;" horiz-adv-x="364" />
<glyph unicode="&#x200a;" horiz-adv-x="101" />
<glyph unicode="&#x2010;" horiz-adv-x="1462" d="M1219 488h-975v243h975v-243z" />
<glyph unicode="&#x2011;" horiz-adv-x="1462" d="M1219 488h-975v243h975v-243z" />
<glyph unicode="&#x2012;" horiz-adv-x="1462" d="M1219 488h-975v243h975v-243z" />
<glyph unicode="&#x2013;" horiz-adv-x="1024" d="M244 488v243h536v-243h-536z" />
<glyph unicode="&#x2014;" horiz-adv-x="2048" d="M244 488v243h1560v-243h-1560z" />
<glyph unicode="&#x2018;" horiz-adv-x="1219" d="M488 731v244h-244v244h487v-244h244v-244h-487z" />
<glyph unicode="&#x2019;" horiz-adv-x="975" d="M731 731h-487v488h487v-488z" />
<glyph unicode="&#x201c;" horiz-adv-x="1462" d="M1219 731h-975v488h975v-488z" />
<glyph unicode="&#x201d;" horiz-adv-x="1462" d="M1219 731h-975v488h975v-488z" />
<glyph unicode="&#x2026;" horiz-adv-x="2194" d="M1463 244h488v-244h-488v244zM731 244h488v-244h-488v244zM0 244h488v-244h-488v244z" />
<glyph unicode="&#x202f;" horiz-adv-x="364" />
<glyph unicode="&#x2039;" horiz-adv-x="1462" d="M731 0v244h-243v244h-244v243h244v244h243v244h488v-244h-244v-244h-244v-243h244v-244h244v-244h-488z" />
<glyph unicode="&#x203a;" horiz-adv-x="1462" d="M1219 488h-244v-244h-244v-244h-487v244h244v244h243v243h-243v244h-244v244h487v-244h244v-244h244v-243z" />
<glyph unicode="&#x205f;" horiz-adv-x="456" />
<glyph unicode="&#x2122;" horiz-adv-x="3413" d="M1707 0v1219h487v-244h488v244h488v-1219h-488v488h-488v-488h-487zM488 0v975h-244v244h975v-244h-244v-975h-487z" />
<glyph unicode="&#xe000;" horiz-adv-x="1220" d="M0 1220h1220v-1220h-1220v1220z" />
<glyph unicode="&#xfb01;" horiz-adv-x="2438" d="M1707 0v1219h487v-1219h-487zM244 0v1219h975v-244h-488v-244h488v-243h-488v-488h-487z" />
<glyph unicode="&#xfb02;" horiz-adv-x="2925" d="M2194 244h488v-244h-975v1219h487v-975zM244 0v1219h975v-244h-488v-244h488v-243h-488v-488h-487z" />
<glyph unicode="&#xfb03;" horiz-adv-x="3900" d="M3170 0v1219h487v-1219h-487zM1707 0v1219h975v-244h-488v-244h488v-243h-488v-488h-487zM244 0v1219h975v-244h-488v-244h488v-243h-488v-488h-487z" />
<glyph unicode="&#xfb04;" horiz-adv-x="4388" d="M3657 244h488v-244h-975v1219h487v-975zM1707 0v1219h975v-244h-488v-244h488v-243h-488v-488h-487zM244 0v1219h975v-244h-488v-244h488v-243h-488v-488h-487z" />
</font>
</defs>
</svg>
