<svg xmlns="http://www.w3.org/2000/svg" viewBox="0 0 506 503"><defs><linearGradient id="a" x1="0%" x2="100%" y1="0%" y2="50%"><stop offset="0%" stop-color="#0066A3" stop-opacity=".8"/><stop offset="100%" stop-color="#003B5F" stop-opacity=".8"/></linearGradient></defs><path fill="url(#a)" d="m232.37 218.89 220.2-108.185-220.2-100.27-220.202 100.27z" transform="translate(20.63)"/><path d="M248.923 1.477 28.715 101.747a9.85 9.85 0 0 0-5.766 8.816 9.85 9.85 0 0 0 5.505 8.983l220.208 108.185a9.847 9.847 0 0 0 8.676 0l220.208-108.185a9.85 9.85 0 0 0 5.505-8.983 9.85 9.85 0 0 0-5.766-8.817L257.077 1.476a9.847 9.847 0 0 0-8.154 0ZM253 21.254l197.185 89.792L253 207.923 55.815 111.046 253 21.254Z"/><path fill="url(#a)" d="M237.801 124.77 13.718 12.15l23.593 228.518 202.255 126.233z" transform="translate(-3 126.03)"/><path d="M15.138 129.385a9.847 9.847 0 0 0-14.215 9.807l23.592 228.516a9.847 9.847 0 0 0 4.585 7.346l202.254 126.23a9.847 9.847 0 0 0 15.054-8.422l-1.762-242.131a9.847 9.847 0 0 0-5.423-8.731L15.138 129.385Zm7.224 25.661L225 256.9l1.592 218.2L43.608 360.9 22.362 155.046Z"/><path fill="url(#a)" d="M14.26 124.77 238.343 12.15 214.75 240.667 12.496 366.901z" transform="translate(256.938 126.03)"/><path d="M497.692 128.638a9.847 9.847 0 0 0-6.83.747L266.777 242a9.847 9.847 0 0 0-5.423 8.73l-1.762 242.132a9.848 9.848 0 0 0 15.054 8.423L476.9 375.054a9.847 9.847 0 0 0 4.585-7.346l23.592-228.516a9.847 9.847 0 0 0-7.385-10.554Zm-14.054 26.408L462.392 360.9 279.408 475.1 281 256.9l202.638-101.854Z"/></svg>
