<svg xmlns="http://www.w3.org/2000/svg" viewBox="0 0 565 128"><defs><linearGradient id="a" x1="0%" x2="100%" y1="0%" y2="50%"><stop offset="0%" stop-color="#0066A3" stop-opacity=".8"/><stop offset="100%" stop-color="#003B5F" stop-opacity=".8"/></linearGradient></defs><path fill="url(#a)" d="m59 55.578 55.91-27.47L59 2.65 3.09 28.109z" transform="translate(5)"/><path d="M62.965.375 7.053 25.834a2.501 2.501 0 0 0-.067 4.52l55.912 27.468a2.5 2.5 0 0 0 2.204 0l55.912-27.468a2.501 2.501 0 0 0-.067-4.52L65.035.375a2.5 2.5 0 0 0-2.07 0ZM64 5.396l50.066 22.8L64 52.792 13.934 28.195 64 5.396Z"/><path fill="url(#a)" d="M60.38 31.68 3.482 3.085l5.99 58.022 51.354 32.051z" transform="translate(-1 32)"/><path d="M3.605 32.852a2.5 2.5 0 0 0-3.609 2.49l5.99 58.021A2.5 2.5 0 0 0 7.15 95.23l51.354 32.05a2.5 2.5 0 0 0 3.822-2.138l-.447-61.479a2.5 2.5 0 0 0-1.377-2.217L3.605 32.852Zm1.834 6.515L56.891 65.23l.404 55.402-46.461-28.996-5.395-52.268Z"/><path fill="url(#a)" d="M3.62 31.68 60.518 3.085l-5.99 58.022L3.172 93.158z" transform="translate(65 32)"/><path d="M126.129 32.662a2.5 2.5 0 0 0-1.734.19L67.498 61.445a2.5 2.5 0 0 0-1.377 2.217l-.447 61.479a2.5 2.5 0 0 0 3.822 2.138l51.354-32.05a2.5 2.5 0 0 0 1.164-1.866l5.99-58.021a2.5 2.5 0 0 0-1.875-2.68Zm-3.568 6.705-5.395 52.268-46.46 28.996.403-55.402 51.452-25.862Z"/><path fill="url(#a)" d="M150.204 84.625c0-4.794.752-9.306 2.256-13.536 1.504-4.23 3.807-7.896 6.909-10.998 3.102-3.196 7.003-5.687 11.703-7.473 4.794-1.88 10.481-2.82 17.061-2.82 3.948 0 7.52.282 10.716.846 3.196.564 6.439 1.504 9.729 2.82l-3.807 13.959c-1.88-.658-3.995-1.222-6.345-1.692-2.256-.564-5.17-.846-8.742-.846-4.136 0-7.614.517-10.434 1.551-2.726.94-4.935 2.303-6.627 4.089-1.692 1.692-2.914 3.76-3.666 6.204-.752 2.444-1.128 5.076-1.128 7.896 0 6.11 1.692 10.904 5.076 14.382 3.478 3.478 9.353 5.217 17.625 5.217a66.12 66.12 0 0 0 8.46-.564c3.008-.376 5.734-.987 8.178-1.833l2.538 14.241c-2.444.94-5.405 1.692-8.883 2.256-3.478.658-7.567.987-12.267.987-6.768 0-12.596-.893-17.484-2.679-4.794-1.786-8.742-4.23-11.844-7.332-3.102-3.102-5.405-6.768-6.909-10.998-1.41-4.23-2.115-8.789-2.115-13.677Zm94.329 18.753V54.592c-2.632 1.88-5.64 3.572-9.024 5.076-3.384 1.41-6.251 2.538-8.601 3.384l-5.64-14.382c2.256-.846 4.7-1.927 7.332-3.243a110.08 110.08 0 0 0 7.896-4.371 86.694 86.694 0 0 0 7.473-5.076c2.35-1.786 4.371-3.619 6.063-5.499h11.844v72.897h17.343v14.382h-53.016v-14.382h18.33Zm66.834-25.662a179.902 179.902 0 0 0 5.076-6.204 118.303 118.303 0 0 0 5.076-6.909c1.692-2.35 3.29-4.606 4.794-6.768a109.152 109.152 0 0 0 3.948-6.345h20.868a221.125 221.125 0 0 1-5.781 7.05 442.276 442.276 0 0 1-6.768 7.755 179.854 179.854 0 0 1-6.909 7.614 1214.23 1214.23 0 0 0-6.204 6.768c2.35 2.256 4.888 4.982 7.614 8.178a210.613 210.613 0 0 1 8.037 9.729 134.552 134.552 0 0 1 7.191 10.152c2.256 3.384 4.042 6.392 5.358 9.024h-19.881c-1.128-2.35-2.632-4.982-4.512-7.896a108.096 108.096 0 0 0-5.781-8.742 117.208 117.208 0 0 0-6.345-8.178c-2.068-2.632-3.995-4.794-5.781-6.486v31.302h-17.484V22.867l17.484-2.961v57.81Zm92.073 28.905c0 4.136-1.269 7.285-3.807 9.447-2.538 2.162-5.452 3.243-8.742 3.243-1.692 0-3.29-.282-4.794-.846a13.766 13.766 0 0 1-4.089-2.397 15.055 15.055 0 0 1-2.82-3.948c-.658-1.598-.987-3.431-.987-5.499 0-1.974.329-3.713.987-5.217.752-1.598 1.692-2.914 2.82-3.948a13.766 13.766 0 0 1 4.089-2.397c1.504-.564 3.102-.846 4.794-.846 3.29 0 6.204 1.081 8.742 3.243 2.538 2.162 3.807 5.217 3.807 9.165Zm62.604-74.166c0 3.384-1.081 6.063-3.243 8.037-2.162 1.974-4.747 2.961-7.755 2.961s-5.593-.987-7.755-2.961c-2.068-1.974-3.102-4.653-3.102-8.037 0-3.478 1.034-6.204 3.102-8.178 2.162-1.974 4.747-2.961 7.755-2.961s5.593.987 7.755 2.961c2.162 1.974 3.243 4.7 3.243 8.178Zm25.803 82.485c-3.572 1.692-6.956 2.82-10.152 3.384-3.102.658-5.969.987-8.601.987-4.512 0-8.319-.658-11.421-1.974-3.008-1.316-5.452-3.196-7.332-5.64-1.786-2.538-3.055-5.593-3.807-9.165-.752-3.572-1.128-7.661-1.128-12.267V65.872h-18.33V51.49h35.673v41.031c0 3.948.705 6.909 2.115 8.883 1.504 1.88 3.948 2.82 7.332 2.82 1.598 0 3.525-.188 5.781-.564 2.256-.47 4.794-1.363 7.614-2.679l2.256 13.959Zm24.816-49.068h-15.087V51.49h15.087V34.852l17.343-2.82V51.49h27.777v14.382h-27.777v26.79c0 2.444.235 4.418.705 5.922.47 1.504 1.128 2.679 1.974 3.525.846.846 1.88 1.41 3.102 1.692 1.222.282 2.585.423 4.089.423 1.598 0 3.055-.047 4.371-.141a46.274 46.274 0 0 0 3.948-.423 31.12 31.12 0 0 0 3.948-1.128 41.46 41.46 0 0 0 4.512-1.833l2.397 14.946c-3.196 1.316-6.674 2.256-10.434 2.82-3.666.564-7.238.846-10.716.846-4.042 0-7.614-.329-10.716-.987-3.102-.658-5.734-1.927-7.896-3.807s-3.807-4.512-4.935-7.896c-1.128-3.478-1.692-7.99-1.692-13.536V65.872Z" transform="translate(-1)"/><path d="m482.552 109.25 13.91-3.732m-309.33-58.22c-6.814 0-12.81.971-17.964 2.991-4.978 1.894-9.205 4.576-12.578 8.047-3.355 3.358-5.867 7.362-7.486 11.916-1.604 4.51-2.4 9.318-2.4 14.373 0 5.128.742 9.963 2.243 14.467l.008.023.008.024c1.621 4.56 4.137 8.568 7.498 11.93 3.388 3.387 7.666 6.016 12.739 7.906l.008.002.008.004c5.237 1.913 11.354 2.83 18.341 2.83 4.798 0 9.014-.333 12.684-1.024 3.595-.584 6.71-1.366 9.363-2.386l1.926-.74-1.682-9.43-1.732-9.723-2.766.957c-2.252.78-4.808 1.357-7.67 1.715h-.01c-2.815.363-5.53.545-8.14.545-7.911 0-13.064-1.706-15.844-4.477-2.865-2.952-4.357-6.983-4.357-12.623 0-2.598.345-4.974 1.017-7.16.645-2.095 1.648-3.775 3.045-5.172l.024-.023.023-.026c1.382-1.458 3.212-2.612 5.627-3.445l.023-.008.024-.008c2.449-.898 5.644-1.398 9.572-1.398 3.44 0 6.182.283 8.137.771l.056.014.059.012c2.256.45 4.261.99 6.01 1.601l2.53.885 5.1-18.697-2.07-.828c-3.435-1.374-6.843-2.365-10.222-2.961-3.37-.595-7.084-.883-11.15-.883h-.001Zm0 5c3.83 0 7.26.274 10.282.807 2.319.41 4.711 1.225 7.107 2.063l-2.51 9.205c-1.314-.373-2.56-.782-4.034-1.078-2.548-.63-5.615-.91-9.293-.91-4.332 0-8.081.532-11.266 1.695-3.016 1.043-5.587 2.605-7.582 4.701-1.976 1.983-3.411 4.43-4.268 7.213-.831 2.702-1.24 5.589-1.24 8.631 0 6.572 1.891 12.123 5.785 16.125l.012.012.012.013c4.178 4.18 10.77 5.95 19.392 5.95 2.84 0 5.768-.198 8.78-.586h.002c2.124-.266 3.962-.816 5.851-1.315l.764 4.283.914 5.125c-1.911.606-3.852 1.207-6.418 1.623l-.031.006-.034.006c-3.275.62-7.217.944-11.8.944-6.545 0-12.082-.869-16.62-2.526-4.511-1.681-8.126-3.937-10.94-6.752-2.837-2.836-4.924-6.154-6.311-10.042-1.314-3.95-1.983-8.226-1.983-12.866 0-4.532.71-8.75 2.113-12.699 1.387-3.9 3.478-7.223 6.32-10.066l.014-.014.012-.014c2.825-2.91 6.391-5.202 10.799-6.877l.012-.004.011-.005c4.432-1.738 9.807-2.647 16.149-2.647Zm60.786-24.318-.744.829c-1.57 1.744-3.473 3.476-5.717 5.181a84.197 84.197 0 0 1-7.258 4.93 107.578 107.578 0 0 1-7.717 4.271c-2.568 1.284-4.935 2.33-7.091 3.14l-2.377.89 7.455 19.006 2.285-.823c2.407-.866 5.307-2.007 8.717-3.427l.027-.012.026-.012a58.326 58.326 0 0 0 5.51-2.822v41.748h-18.33v19.38h58.015v-19.38h-17.342V27.98h-15.459Zm2.062 5h8.397v72.899h17.342v9.38H227.703v-9.38h18.33V49.734l-3.953 2.825c-2.472 1.765-5.327 3.371-8.57 4.814-2.445 1.018-4.306 1.722-6.188 2.436l-3.853-9.825c1.704-.711 3.38-1.387 5.25-2.322a112.532 112.532 0 0 0 8.074-4.469 89.217 89.217 0 0 0 7.69-5.222c2.107-1.602 3.862-3.28 5.497-4.99Zm62.887-16.033-22.484 3.809v99.504h22.484V93.01c.46.554.838.869 1.317 1.478l.029.04.033.036a114.708 114.708 0 0 1 6.207 8.004l.012.016.012.016c2.02 2.755 3.901 5.6 5.646 8.539l.025.04.024.04c1.837 2.848 3.291 5.398 4.36 7.623l.68 1.418h25.5l-1.808-3.617c-1.378-2.756-3.214-5.84-5.506-9.278a137.095 137.095 0 0 0-7.308-10.316 213.093 213.093 0 0 0-8.133-9.844c-2.164-2.536-4.136-4.562-6.09-6.537 1.466-1.605 2.933-3.213 4.608-5.027l.035-.038a182.353 182.353 0 0 0 6.969-7.681 444.685 444.685 0 0 0 6.771-7.762c2.18-2.56 4.13-4.933 5.848-7.129l3.162-4.04h-27.45l-.718 1.259a106.846 106.846 0 0 1-3.848 6.18 509.187 509.187 0 0 1-4.754 6.713l-.02.027-.017.027a115.807 115.807 0 0 1-4.97 6.762l-.005.006-.004.006c-.202.259-.404.486-.607.742V16.947Zm-5 5.918v92.395h-12.484V24.979l12.484-2.114Zm22.781 31.125h14.198c-.817.99-1.5 1.87-2.4 2.928a439.844 439.844 0 0 1-6.731 7.71l-.016.02-.017.02a177.37 177.37 0 0 1-6.813 7.508l-.017.017-.018.02c-2.26 2.448-4.332 4.71-6.217 6.783l-1.637 1.8 1.756 1.684c2.273 2.182 4.757 4.851 7.442 7.999l.011.013.014.014a208.107 208.107 0 0 1 7.942 9.613 132.031 132.031 0 0 1 7.056 9.963l.014.022.014.019c1.3 1.95 2.083 3.465 3.052 5.137h-14.05c-1.08-2.101-2.255-4.263-3.83-6.707a110.635 110.635 0 0 0-5.89-8.903c-.001-.002-.001-.005-.003-.007a119.686 119.686 0 0 0-6.42-8.274c-2.113-2.687-4.104-4.928-6.002-6.726l-2.406-2.282 2.586-3.017c1.714-2 3.428-4.094 5.138-6.28l.008-.011a120.773 120.773 0 0 0 5.174-7.043c1.684-2.34 3.28-4.59 4.78-6.746l.013-.02.014-.021c1.233-1.85 2.261-3.553 3.256-5.233Zm59.192 37.723c-1.952.005-3.844.34-5.621 1.006a16.316 16.316 0 0 0-4.826 2.828l-.038.033-.037.033c-1.397 1.28-2.524 2.881-3.392 4.727l-.014.031-.014.031c-.819 1.872-1.197 3.967-1.197 6.219 0 2.333.373 4.502 1.176 6.451l.033.084.041.082a17.598 17.598 0 0 0 3.29 4.598l.073.074.078.066a16.322 16.322 0 0 0 4.827 2.83 16.092 16.092 0 0 0 5.672 1.004c3.837 0 7.419-1.332 10.363-3.84 3.137-2.672 4.685-6.702 4.685-11.35 0-4.483-1.575-8.418-4.685-11.067-2.944-2.508-6.526-3.84-10.363-3.84h-.051Zm.015 5h.036c2.742 0 4.989.83 7.12 2.646 1.967 1.675 2.928 3.85 2.928 7.262 0 3.625-.988 5.891-2.927 7.543-2.132 1.816-4.38 2.647-7.121 2.647-1.415 0-2.701-.23-3.916-.686a11.207 11.207 0 0 1-3.262-1.912 12.51 12.51 0 0 1-2.227-3.123c-.497-1.234-.785-2.697-.785-4.469 0-1.684.281-3.054.772-4.185.623-1.313 1.36-2.323 2.197-3.098a11.21 11.21 0 0 1 3.305-1.938c1.205-.451 2.48-.683 3.88-.687Zm64.192-77.897c-.268 0-.536.007-.8.02a13.718 13.718 0 0 0-8.642 3.596l-.021.017-.02.02c-2.598 2.48-3.875 6.013-3.875 9.986 0 3.893 1.291 7.38 3.875 9.846l.02.02.021.017c2.589 2.363 5.887 3.615 9.442 3.615 3.555 0 6.851-1.252 9.44-3.615 2.687-2.454 4.058-5.967 4.058-9.883 0-3.996-1.357-7.556-4.059-10.023-2.588-2.364-5.884-3.616-9.44-3.616Zm0 5c2.461 0 4.333.722 6.068 2.307 1.622 1.481 2.43 3.372 2.43 6.332 0 2.852-.793 4.697-2.43 6.191-1.735 1.585-3.607 2.307-6.068 2.307-2.449 0-4.315-.72-6.043-2.289-1.54-1.479-2.315-3.345-2.315-6.209 0-2.972.79-4.886 2.317-6.351 1.597-1.449 3.308-2.164 5.492-2.274.18-.009.363-.014.549-.014Zm-26.47 25.174v19.381h18.33v21.895c0 4.742.384 8.997 1.18 12.78.81 3.846 2.201 7.234 4.21 10.089l.03.045.032.04c2.141 2.784 4.96 4.94 8.313 6.407l.012.006.013.006c3.503 1.486 7.642 2.172 12.397 2.172 2.827 0 5.852-.356 9.078-1.037 3.447-.613 7.026-1.812 10.746-3.575l1.697-.804-.3-1.854-2.784-17.224-2.998 1.398c-2.677 1.25-5.032 2.065-7.03 2.484-2.127.352-3.922.526-5.308.526-2.881 0-4.39-.708-5.326-1.846-.933-1.343-1.621-3.753-1.621-7.357V48.99h-40.672Zm5 5h30.671v38.531c0 4.246.714 7.721 2.582 10.336l.04.055.042.053c2.076 2.594 5.436 3.76 9.283 3.76 1.794 0 3.843-.206 6.194-.598l.049-.01.048-.01c1.616-.337 3.35-.92 5.141-1.615l1.436 8.883c-2.75 1.172-5.38 2.058-7.803 2.486l-.041.008-.043.01c-2.962.628-5.659.931-8.082.931-4.263 0-7.733-.628-10.432-1.771-2.638-1.157-4.693-2.75-6.305-4.832-1.547-2.213-2.687-4.914-3.377-8.19-.707-3.36-1.074-7.282-1.074-11.751V63.37h-18.33v-9.38Zm102.929-24.898-22.344 3.635V48.99h-15.086v19.381h15.086v24.715c0 5.715.566 10.458 1.815 14.307l.004.01.002.01c1.235 3.706 3.108 6.766 5.668 8.992 2.5 2.173 5.558 3.631 9.017 4.365 3.318.704 7.057 1.041 11.234 1.041 3.614 0 7.313-.293 11.096-.875 3.936-.591 7.61-1.58 11.006-2.979l1.83-.753-1.465-9.13-1.771-11.052-3.008 1.416a39.012 39.012 0 0 1-4.238 1.723l-.024.008-.025.01a28.604 28.604 0 0 1-3.574 1.021c-1.12.17-2.332.301-3.649.389l-.006.002h-.006a59.27 59.27 0 0 1-4.191.135c-1.348 0-2.524-.128-3.527-.36-.812-.187-1.378-.505-1.897-1.023-.486-.486-.973-1.28-1.355-2.504-.355-1.136-.592-2.892-.592-5.176V68.371h27.777v-19.38h-27.777v-19.9Zm-5 5.88V53.99h27.777v9.381h-27.777v29.291c0 2.604.233 4.796.818 6.668.558 1.784 1.388 3.34 2.594 4.547a8.916 8.916 0 0 0 4.307 2.36c1.44.332 2.992.488 4.652.488 1.647 0 3.161-.05 4.549-.149a48.705 48.705 0 0 0 4.148-.445l.073-.012.072-.014a33.633 33.633 0 0 0 4.24-1.21c.548-.184 1.157-.482 1.725-.702l.75 4.674.816 5.092c-2.496.882-5.125 1.602-8.002 2.033l-.006.002h-.004c-3.548.546-6.993.817-10.336.817-3.906 0-7.31-.32-10.197-.932-2.745-.582-4.951-1.662-6.775-3.248-1.763-1.532-3.18-3.737-4.2-6.793-1.005-3.106-1.568-7.381-1.568-12.752V63.371h-15.086v-9.38h15.086V36.978l12.344-2.006Z"/></svg>
